<mxfile host="65bd71144e">
    <diagram id="Hqwi4EA126hL_jI9iqDA" name="Page-1">
        <mxGraphModel dx="832" dy="520" grid="1" gridSize="10" guides="1" tooltips="1" connect="1" arrows="1" fold="1" page="1" pageScale="1" pageWidth="850" pageHeight="1100" math="0" shadow="0">
            <root>
                <mxCell id="0"/>
                <mxCell id="1" parent="0"/>
                <mxCell id="2" value="usuarios" style="rounded=1;arcSize=10;whiteSpace=wrap;html=1;align=center;" vertex="1" parent="1">
                    <mxGeometry x="160" y="80" width="100" height="40" as="geometry"/>
                </mxCell>
                <mxCell id="3" value="posts" style="rounded=1;arcSize=10;whiteSpace=wrap;html=1;align=center;" vertex="1" parent="1">
                    <mxGeometry x="520" y="80" width="100" height="40" as="geometry"/>
                </mxCell>
                <mxCell id="4" value="comentarios" style="rounded=1;arcSize=10;whiteSpace=wrap;html=1;align=center;" vertex="1" parent="1">
                    <mxGeometry x="130" y="360" width="100" height="40" as="geometry"/>
                </mxCell>
                <mxCell id="5" value="categorias" style="rounded=1;arcSize=10;whiteSpace=wrap;html=1;align=center;" vertex="1" parent="1">
                    <mxGeometry x="630" y="350" width="100" height="40" as="geometry"/>
                </mxCell>
                <mxCell id="6" value="&lt;span style=&quot;border-bottom: 1px dotted&quot;&gt;email&lt;/span&gt;" style="ellipse;whiteSpace=wrap;html=1;align=center;" vertex="1" parent="1">
                    <mxGeometry x="20" y="160" width="100" height="40" as="geometry"/>
                </mxCell>
                <mxCell id="8" value="" style="endArrow=none;html=1;rounded=0;exitX=1;exitY=0;exitDx=0;exitDy=0;entryX=0;entryY=1;entryDx=0;entryDy=0;" edge="1" parent="1" source="6" target="2">
                    <mxGeometry relative="1" as="geometry">
                        <mxPoint x="150" y="140" as="sourcePoint"/>
                        <mxPoint x="310" y="140" as="targetPoint"/>
                    </mxGeometry>
                </mxCell>
                <mxCell id="10" value="id" style="ellipse;whiteSpace=wrap;html=1;align=center;fontStyle=4;" vertex="1" parent="1">
                    <mxGeometry x="410" y="160" width="100" height="40" as="geometry"/>
                </mxCell>
                <mxCell id="11" value="titulo" style="ellipse;whiteSpace=wrap;html=1;align=center;" vertex="1" parent="1">
                    <mxGeometry x="550" y="200" width="100" height="40" as="geometry"/>
                </mxCell>
                <mxCell id="12" value="contenido" style="ellipse;whiteSpace=wrap;html=1;align=center;" vertex="1" parent="1">
                    <mxGeometry x="670" y="140" width="100" height="40" as="geometry"/>
                </mxCell>
                <mxCell id="13" value="fecha" style="ellipse;whiteSpace=wrap;html=1;align=center;" vertex="1" parent="1">
                    <mxGeometry x="680" y="40" width="100" height="40" as="geometry"/>
                </mxCell>
                <mxCell id="14" value="estatus" style="ellipse;whiteSpace=wrap;html=1;align=center;" vertex="1" parent="1">
                    <mxGeometry x="540" width="100" height="40" as="geometry"/>
                </mxCell>
                <mxCell id="15" value="etiquetas" style="shape=ext;margin=3;double=1;whiteSpace=wrap;html=1;align=center;" vertex="1" parent="1">
                    <mxGeometry x="370" y="40" width="100" height="40" as="geometry"/>
                </mxCell>
                <mxCell id="21" value="" style="endArrow=none;html=1;rounded=0;exitX=0.5;exitY=0;exitDx=0;exitDy=0;entryX=0;entryY=1;entryDx=0;entryDy=0;" edge="1" parent="1" source="10" target="3">
                    <mxGeometry relative="1" as="geometry">
                        <mxPoint x="115.35533905932743" y="175.85786437626894" as="sourcePoint"/>
                        <mxPoint x="170" y="130" as="targetPoint"/>
                    </mxGeometry>
                </mxCell>
                <mxCell id="22" value="" style="endArrow=none;html=1;rounded=0;exitX=0;exitY=0.5;exitDx=0;exitDy=0;entryX=1;entryY=0.5;entryDx=0;entryDy=0;" edge="1" parent="1" source="3" target="15">
                    <mxGeometry relative="1" as="geometry">
                        <mxPoint x="470" y="170" as="sourcePoint"/>
                        <mxPoint x="530" y="130" as="targetPoint"/>
                    </mxGeometry>
                </mxCell>
                <mxCell id="23" value="" style="endArrow=none;html=1;rounded=0;exitX=0.5;exitY=0;exitDx=0;exitDy=0;entryX=0.5;entryY=1;entryDx=0;entryDy=0;" edge="1" parent="1" source="3" target="14">
                    <mxGeometry relative="1" as="geometry">
                        <mxPoint x="530" y="110" as="sourcePoint"/>
                        <mxPoint x="480" y="70" as="targetPoint"/>
                    </mxGeometry>
                </mxCell>
                <mxCell id="24" value="" style="endArrow=none;html=1;rounded=0;exitX=1;exitY=0;exitDx=0;exitDy=0;entryX=0;entryY=0.5;entryDx=0;entryDy=0;" edge="1" parent="1" source="3" target="13">
                    <mxGeometry relative="1" as="geometry">
                        <mxPoint x="580" y="90" as="sourcePoint"/>
                        <mxPoint x="600" y="50" as="targetPoint"/>
                    </mxGeometry>
                </mxCell>
                <mxCell id="25" value="" style="endArrow=none;html=1;rounded=0;exitX=1;exitY=1;exitDx=0;exitDy=0;entryX=0;entryY=0.5;entryDx=0;entryDy=0;" edge="1" parent="1" source="3" target="12">
                    <mxGeometry relative="1" as="geometry">
                        <mxPoint x="630" y="90" as="sourcePoint"/>
                        <mxPoint x="690" y="70" as="targetPoint"/>
                    </mxGeometry>
                </mxCell>
                <mxCell id="26" value="" style="endArrow=none;html=1;rounded=0;exitX=0.5;exitY=1;exitDx=0;exitDy=0;entryX=0.5;entryY=0;entryDx=0;entryDy=0;" edge="1" parent="1" source="3" target="11">
                    <mxGeometry relative="1" as="geometry">
                        <mxPoint x="630" y="130" as="sourcePoint"/>
                        <mxPoint x="680" y="170" as="targetPoint"/>
                    </mxGeometry>
                </mxCell>
            </root>
        </mxGraphModel>
    </diagram>
</mxfile>